<svg
        width="1024"
        height="1024"
        viewBox="0 0 1024 1024"
        version="1.1"
        id="svg3"
        xmlns="http://www.w3.org/2000/svg"
>
  <defs id="defs3"/>
  <rect
          x="0"
          y="0"
          width="1024"
          height="1024"
          rx="224"
          fill="#6fd2ff"
          id="outer-border"/>

  <rect
          x="24"
          y="24"
          width="976"
          height="976"
          rx="204"
          fill="#262d3d"
          id="app-surface"/>

  <g transform="translate(512 512) scale(1.4) translate(-512 -512)">
    <path
            d="M 363.64795,350 V 246.80176 h 81.15234 v 16.69922 h -59.5459 v 25.92773 h 55.07813 v 16.69922 h -55.07813 v 27.17285 h 62.54883 V 350 Z m 200.39062,-52.0752 q 0,16.11329 -6.37207,28.34473 -6.37207,12.23145 -18.2373,18.75 -11.86524,6.44531 -27.68555,6.44531 -24.3164,0 -38.15918,-14.28222 -13.76953,-14.35547 -13.76953,-39.25782 0,-24.8291 13.76953,-38.74511 13.76953,-13.91602 38.30567,-13.91602 24.53613,0 38.30566,14.0625 13.84277,14.0625 13.84277,38.59863 z m -22.04589,0 q 0,-16.69921 -7.91016,-26.14746 -7.91016,-9.52148 -22.19238,-9.52148 -14.50196,0 -22.41211,9.44824 -7.91016,9.375 -7.91016,26.2207 0,16.99219 8.05664,26.80665 8.12988,9.74121 22.11914,9.74121 14.50196,0 22.33887,-9.52149 7.91016,-9.52148 7.91016,-27.02637 z m 122.53418,22.33887 q 0,15.16113 -11.2793,23.21778 -11.20606,7.98339 -32.95899,7.98339 -19.84863,0 -31.12793,-7.03125 -11.27929,-7.03125 -14.50195,-21.31347 l 20.87402,-3.44239 q 2.12403,8.20313 8.27637,11.93848 6.15235,3.66211 17.06543,3.66211 22.63184,0 22.63184,-13.76953 0,-4.39453 -2.63672,-7.25098 -2.56348,-2.85644 -7.32422,-4.76074 -4.6875,-1.9043 -18.09082,-4.61426 -11.57227,-2.70996 -16.11328,-4.32129 -4.54102,-1.68457 -8.20313,-3.88183 -3.66211,-2.27051 -6.22558,-5.41992 -2.56348,-3.14942 -4.02832,-7.39747 -1.3916,-4.24804 -1.3916,-9.74121 0,-13.98925 10.47363,-21.38672 10.54687,-7.4707 30.61523,-7.4707 19.18946,0 28.78418,6.00586 9.66797,6.00586 12.45117,19.84863 l -20.94726,2.85645 q -1.61133,-6.66504 -6.5918,-10.03418 -4.90722,-3.36914 -14.13574,-3.36914 -19.62891,0 -19.62891,12.30469 0,4.02832 2.05078,6.59179 2.12403,2.56348 6.22559,4.39453 4.10156,1.83106 16.62598,4.46778 14.86816,3.14941 21.24023,5.85937 6.44531,2.63672 10.18067,6.22559 3.73535,3.51562 5.71289,8.49609 1.97754,4.90723 1.97754,11.35254 z"
            id="text2"
            style="font-weight:700;font-size:150px;font-family:Arial, Helvetica, sans-serif;text-anchor:middle;fill:#f5f8ff"
            aria-label="EOS"/>

    <path
            d="M300 450H610V365L792 513L610 661V575H300Z"
            fill="#6fd2ff"
            id="path2"/>

    <path
            d="m 438.48828,730.50586 q 0,14.87109 -7.33008,24.78516 -7.27734,9.86132 -20.30273,12.49804 1.79297,5.22071 5.00976,7.54102 3.26954,2.32031 9.12305,2.32031 3.11133,0 6.27539,-0.52734 l -0.10547,10.65234 q -6.64453,1.47656 -12.76172,1.47656 -8.5957,0 -14.23828,-4.79883 -5.64258,-4.79882 -9.07031,-15.92578 -15.0293,-1.42382 -23.36133,-11.44336 -8.27929,-10.07226 -8.27929,-26.57812 0,-17.87695 9.91406,-27.89649 9.91406,-10.01953 27.58008,-10.01953 17.66601,0 27.58007,10.125 9.9668,10.125 9.9668,27.79102 z m -15.87305,0 q 0,-12.02344 -5.69531,-18.82617 -5.69531,-6.85547 -15.97851,-6.85547 -10.44141,0 -16.13672,6.80273 -5.69532,6.75 -5.69532,18.87891 0,12.23437 5.80079,19.30078 5.80078,7.06641 15.92578,7.06641 10.4414,0 16.08398,-6.85547 5.69531,-6.85547 5.69531,-19.51172 z M 450.24805,768 v -74.30273 h 15.55664 v 62.27929 h 39.86718 V 768 Z m 118.49414,0 -6.5918,-18.98438 H 533.83203 L 527.24023,768 h -15.55664 l 27.10547,-74.30273 h 18.35156 l 27,74.30273 z m -10.07227,-30.69141 -7.33008,-21.35742 -3.375,-10.81055 q -0.84375,3.0586 -1.58203,5.48438 -0.73828,2.42578 -9.07031,26.68359 z m 101.4082,9.49219 q 0,10.125 -7.59375,15.66211 Q 644.89062,768 631.39062,768 h -37.17773 v -74.30273 h 34.01367 q 13.60547,0 20.56641,4.74609 7.01367,4.69336 7.01367,13.92187 0,6.32813 -3.5332,10.70508 -3.48047,4.32422 -10.65235,5.85352 9.01758,1.05469 13.71094,5.69531 4.74609,4.58789 4.74609,12.18164 z m -15.60937,-1.21289 q 0,-10.44141 -14.97656,-10.44141 h -19.72266 v 21.30469 h 20.30274 q 7.48828,0 10.91601,-2.68945 3.48047,-2.74219 3.48047,-8.17383 z m -4.32422,-31.11328 q 0,-5.00977 -3.2168,-7.11914 -3.16406,-2.10938 -9.43945,-2.10938 h -17.71875 v 18.4043 h 17.82422 q 6.5918,0 9.54492,-2.26758 3.00586,-2.32031 3.00586,-6.9082 z"
            id="text3"
            style="font-weight:700;font-size:108px;font-family:Arial, Helvetica, sans-serif;text-anchor:middle;fill:#f5f8ff"
            aria-label="QLAB"/>
  </g>
</svg>